<svg width="46" height="46" viewBox="0 0 46 46" fill="none" xmlns="http://www.w3.org/2000/svg">
<path d="M29.0699 22.5703H25.37V36.0903H20.31V22.5703H16.93V17.9302H20.31V15.2002C20.31 11.4002 21.31 9.08008 25.83 9.08008H29.55V13.7402H27.21C25.48 13.7402 25.38 14.4004 25.38 15.6104V17.9302H29.58L29.0699 22.5703ZM23.24 0.0502952C18.7811 0.0502969 14.4224 1.37249 10.7153 3.8501C7.00821 6.32771 4.11923 9.84943 2.41382 13.9692C0.708408 18.0891 0.263188 22.6218 1.13452 26.9946C2.00585 31.3675 4.15459 35.3837 7.30887 38.5352C10.4631 41.6866 14.4812 43.8323 18.8549 44.6997C23.2285 45.5672 27.7612 45.1178 31.8795 43.4087C35.9978 41.6996 39.5167 38.8075 41.991 35.0981C44.4653 31.3888 45.7839 27.0292 45.78 22.5703C45.7787 19.6116 45.1946 16.6822 44.0611 13.9492C42.9277 11.2163 41.267 8.73327 39.174 6.64209C37.081 4.55092 34.5965 2.89226 31.8626 1.76123C29.1286 0.630208 26.1986 0.0489817 23.24 0.0502952Z" fill="#939598"/>
</svg>
