<svg width="41" height="41" viewBox="0 0 41 41" fill="none" xmlns="http://www.w3.org/2000/svg">
<path d="M40.06 20.5299C40.06 24.3926 38.9146 28.1686 36.7686 31.3802C34.6226 34.5919 31.5725 37.0952 28.0038 38.5734C24.4352 40.0515 20.5084 40.4383 16.7199 39.6847C12.9315 38.9311 9.45153 37.071 6.72021 34.3397C3.98889 31.6084 2.12884 28.1285 1.37527 24.3401C0.621698 20.5516 1.00848 16.6248 2.48666 13.0562C3.96484 9.48751 6.46805 6.43737 9.67974 4.29138C12.8914 2.1454 16.6674 1 20.53 1C25.7097 1 30.6772 3.05751 34.3398 6.72009C38.0024 10.3827 40.06 15.3502 40.06 20.5299Z" stroke="white" stroke-miterlimit="10"/>
<path d="M20.53 8.04004V22.5H34.2" stroke="white" stroke-miterlimit="10"/>
</svg>
