<svg width="41" height="41" viewBox="0 0 41 41" fill="none" xmlns="http://www.w3.org/2000/svg">
<path d="M40.08 20.5299C40.082 24.3967 38.9366 28.1772 36.789 31.3927C34.6413 34.6083 31.5879 37.1143 28.0153 38.5935C24.4427 40.0728 20.5115 40.4589 16.7194 39.7028C12.9272 38.9467 9.44463 37.0826 6.71251 34.3462C3.9804 31.6099 2.12157 28.1245 1.37133 24.3312C0.621086 20.5379 1.01317 16.6073 2.49795 13.0369C3.98272 9.46656 6.49343 6.41704 9.71224 4.27433C12.9311 2.13163 16.7132 0.992126 20.58 1.00004C25.7597 1.00004 30.7272 3.05767 34.3898 6.72026C38.0524 10.3828 40.11 15.3503 40.11 20.5299H40.08Z" stroke="white" stroke-miterlimit="10"/>
<path d="M28.2 24.78H12.9V30.77H28.2V24.78Z" stroke="white" stroke-miterlimit="10"/>
<path d="M14.58 11.59C14.58 11.59 9.14001 12.2699 9.58001 16.2799C10.02 20.2899 13 24.8999 13 24.8999" stroke="white" stroke-miterlimit="10"/>
<path d="M26.79 11.59C26.79 11.59 32 12.2699 31.6 16.2799C31.2 20.2899 28.19 24.8999 28.19 24.8999" stroke="white" stroke-miterlimit="10"/>
<path d="M15.18 16.9199C14.47 14.3999 14.1 11.98 14.81 10.84C16.61 7.98997 20.65 8.29993 20.65 8.29993" stroke="white" stroke-miterlimit="10"/>
<path d="M18.11 24.83C18.11 24.83 17.23 22.9 16.32 20.45" stroke="white" stroke-miterlimit="10"/>
<path d="M26.13 16.9199C26.84 14.3999 27.21 11.98 26.49 10.84C24.69 7.98997 20.65 8.29993 20.65 8.29993" stroke="white" stroke-miterlimit="10"/>
</svg>
