<svg width="46" height="46" viewBox="0 0 46 46" fill="none" xmlns="http://www.w3.org/2000/svg">
<path fill-rule="evenodd" clip-rule="evenodd" d="M33.96 25.02C35.01 26.02 36.12 27.0201 37.07 28.1401C37.4948 28.6332 37.8669 29.1696 38.18 29.7402C38.61 30.5802 38.18 31.4803 37.48 31.5303H32.86C32.3104 31.5722 31.7587 31.4856 31.2484 31.2773C30.7381 31.0691 30.2833 30.7446 29.92 30.3301C29.28 29.6801 28.69 28.9901 28.08 28.3301C27.8315 28.0498 27.5494 27.8015 27.24 27.5903C27.121 27.4963 26.9822 27.4304 26.8341 27.398C26.6859 27.3655 26.5324 27.3672 26.385 27.4028C26.2376 27.4385 26.1002 27.507 25.9833 27.6035C25.8663 27.7001 25.7729 27.822 25.71 27.96C25.3853 28.6336 25.2178 29.3723 25.22 30.1201C25.17 31.2101 24.84 31.49 23.75 31.54C21.4554 31.721 19.1579 31.2275 17.14 30.1201C15.3817 29.064 13.8682 27.6458 12.7 25.96C10.3808 22.7036 8.41951 19.2071 6.85002 15.5303C6.48002 14.7003 6.75001 14.26 7.66001 14.25C9.16002 14.25 10.66 14.25 12.18 14.25C12.4613 14.253 12.7343 14.346 12.9592 14.5151C13.1841 14.6842 13.349 14.9205 13.43 15.1899C14.2302 17.1937 15.2569 19.0996 16.49 20.8701C16.8013 21.3537 17.1937 21.7802 17.65 22.1304C18.19 22.5004 18.59 22.3803 18.85 21.7803C19.0024 21.4009 19.0902 20.9987 19.11 20.5903C19.2517 19.2025 19.2282 17.8023 19.04 16.4199C19.0102 16.0263 18.8475 15.6547 18.5786 15.3657C18.3097 15.0768 17.9505 14.8879 17.56 14.8301C17.11 14.7501 17.18 14.5801 17.39 14.3301C17.5504 14.1045 17.7639 13.9217 18.0115 13.7979C18.2591 13.6741 18.5333 13.6131 18.81 13.6201H24.03C24.85 13.7901 25.03 14.16 25.14 14.98V20.7803C25.14 21.1003 25.3 22.0503 25.87 22.2603C26.44 22.4703 26.64 22.04 26.92 21.75C28.1212 20.4051 29.1093 18.8843 29.85 17.2402C30.21 16.5202 30.51 15.78 30.85 15.04C30.9195 14.7875 31.0761 14.5677 31.292 14.4194C31.5079 14.2712 31.7694 14.2041 32.03 14.23H37.03C37.1765 14.2198 37.3235 14.2198 37.47 14.23C38.32 14.37 38.55 14.7403 38.29 15.5703C37.8118 16.8228 37.1366 17.9908 36.29 19.0303C35.45 20.1903 34.56 21.3002 33.73 22.4702C32.9 23.6402 33.03 24.08 33.97 25L33.96 25.02ZM22.55 2.21844e-06C18.0912 -0.00197553 13.7319 1.31847 10.0237 3.79444C6.31548 6.2704 3.4249 9.79062 1.71766 13.9097C0.0104238 18.0287 -0.436764 22.5618 0.432628 26.9351C1.30202 31.3083 3.44894 35.3256 6.60182 38.4785C9.75469 41.6314 13.7719 43.7781 18.1451 44.6475C22.5184 45.5169 27.0512 45.0695 31.1703 43.3623C35.2894 41.6551 38.8095 38.7649 41.2855 35.0566C43.7615 31.3484 45.082 26.9891 45.08 22.5303C45.0773 16.5558 42.7028 10.8267 38.4782 6.60205C34.2536 2.37743 28.5245 0.00265226 22.55 2.21844e-06Z" fill="#939598"/>
</svg>
