<svg width="47" height="46" viewBox="0 0 47 46" fill="none" xmlns="http://www.w3.org/2000/svg">
<path d="M42.0599 32.6401C42.0362 34.8998 41.1177 37.0582 39.5057 38.642C37.8938 40.2259 35.7197 41.1063 33.4599 41.0902H12.8699C10.6101 41.1063 8.43609 40.2259 6.82413 38.642C5.21216 37.0582 4.29369 34.8998 4.26993 32.6401V12.4599C4.29369 10.201 5.21248 8.04409 6.82474 6.46183C8.43699 4.87957 10.611 4.00127 12.8699 4.01994H33.4599C35.7188 4.00127 37.8929 4.87957 39.5051 6.46183C41.1174 8.04409 42.0362 10.201 42.0599 12.4599V32.6401ZM33.4599 0.0199354H12.8699C9.54034 -0.00673775 6.33597 1.28769 3.95914 3.61954C1.5823 5.9514 0.22689 9.13038 0.189941 12.4599V32.6401C0.224261 35.9713 1.57853 39.1527 3.95566 41.4867C6.33278 43.8207 9.53863 45.1169 12.8699 45.0902H33.4599C36.7903 45.1169 39.9951 43.8205 42.3706 41.4862C44.7462 39.152 46.0983 35.9704 46.1299 32.6401V12.4599C46.0877 9.13652 44.7311 5.96523 42.3567 3.63956C39.9823 1.3139 36.7834 0.0235001 33.4599 0.0502089" fill="#939598"/>
</svg>
